<?xml version="1.0" standalone="no"?>
<!DOCTYPE svg PUBLIC "-//W3C//DTD SVG 20010904//EN"
 "http://www.w3.org/TR/2001/REC-SVG-20010904/DTD/svg10.dtd">
<svg version="1.0" xmlns="http://www.w3.org/2000/svg"
 width="900.000000pt" height="900.000000pt" viewBox="0 0 900.000000 900.000000"
 preserveAspectRatio="xMidYMid meet">
<metadata>
Created by potrace 1.10, written by Peter Selinger 2001-2011
</metadata>
<g transform="translate(0.000000,900.000000) scale(0.100000,-0.100000)"
fill="#0d6bf7" stroke="none">
<path d="M915 7610 c-1 -3 -3 -164 -4 -358 l-1 -353 1055 1 c580 1 1059 -1
1064 -4 5 -3 44 -11 87 -17 44 -6 85 -16 92 -22 7 -5 32 -20 55 -31 91 -45
247 -216 247 -270 0 -8 9 -20 19 -26 12 -6 17 -17 14 -29 -3 -10 2 -30 11 -43
15 -23 17 -134 19 -1119 l2 -1094 358 0 358 0 -1 961 c-1 1049 2 1009 -58
1114 -20 36 -143 168 -285 308 -84 82 -156 154 -173 174 -18 19 -106 108 -201
201 -24 24 -160 160 -190 190 -10 10 -45 44 -78 76 -33 31 -69 68 -81 81 -31
37 -185 181 -220 206 -81 56 -34 54 -1102 56 -541 2 -985 1 -987 -2z"/>
<path d="M6155 7612 c-16 -2 -35 -8 -41 -13 -6 -5 -24 -6 -41 -3 -20 4 -33 1
-42 -10 -8 -9 -19 -16 -25 -16 -6 0 -40 -26 -75 -57 -59 -53 -344 -336 -383
-379 -12 -15 -238 -240 -436 -437 -7 -6 -80 -79 -162 -161 -186 -184 -217
-227 -239 -333 -7 -35 -11 -363 -11 -1007 l0 -956 355 0 355 0 0 1068 c0 1028
1 1069 20 1129 10 34 23 70 28 80 6 10 18 36 28 58 26 55 100 152 132 173 15
9 29 19 32 22 20 22 91 70 103 70 8 0 20 6 26 14 6 7 30 16 54 19 23 4 62 11
87 17 29 6 418 10 1098 10 l1052 -1 0 358 0 358 -943 0 c-518 0 -955 -2 -972
-3z m-1305 -1337 c0 -17 -16 -35 -31 -35 -15 0 -19 7 -19 35 l0 35 25 -16 c14
-9 25 -18 25 -19z"/>
<path d="M4365 3180 c-4 -6 -5 -140 -4 -298 3 -268 2 -287 -15 -290 -33 -7
-64 8 -104 48 -21 22 -45 40 -52 40 -7 0 -21 7 -31 16 -14 13 -43 16 -163 15
-136 -1 -149 -3 -201 -27 -67 -32 -165 -121 -165 -150 0 -11 -4 -24 -9 -29
-16 -16 -43 -97 -47 -140 -15 -156 -7 -356 16 -379 5 -5 10 -22 10 -37 0 -15
7 -32 15 -39 8 -7 15 -19 15 -27 0 -20 62 -99 107 -135 57 -46 88 -55 208 -63
154 -10 236 10 303 72 60 57 78 66 109 58 25 -6 25 -8 19 -61 l-6 -54 27 0
c16 1 40 -2 56 -6 15 -3 33 -2 40 4 11 9 13 155 11 749 l-3 738 -64 3 c-39 2
-68 -1 -72 -8z m-225 -590 c50 -26 144 -123 170 -176 78 -158 54 -385 -54
-517 -56 -69 -148 -117 -225 -117 -31 0 -65 6 -76 14 -11 7 -31 16 -45 19 -55
13 -150 124 -150 175 0 7 -9 29 -20 49 -11 21 -20 48 -20 60 0 14 -6 23 -15
23 -19 0 -19 16 0 24 12 4 15 21 14 73 -1 87 11 138 55 232 6 13 11 29 11 35
0 17 74 80 120 104 57 28 181 30 235 2z"/>
<path d="M7918 2893 l-3 -298 -22 -3 c-15 -2 -35 9 -60 33 -20 20 -60 47 -88
61 -48 25 -56 26 -195 22 -100 -2 -153 -8 -170 -17 -14 -8 -32 -18 -40 -23 -8
-4 -20 -11 -27 -14 -17 -8 -83 -71 -83 -79 0 -3 -11 -21 -24 -38 -42 -55 -65
-134 -71 -250 -9 -142 13 -320 46 -377 5 -8 15 -30 24 -48 22 -50 129 -146
183 -165 57 -21 272 -28 293 -10 8 6 33 16 56 22 26 7 60 28 85 52 46 44 81
58 94 37 5 -7 9 -33 9 -58 0 -30 4 -45 13 -44 6 1 39 2 72 2 l61 2 -5 678 c-2
372 -5 684 -5 692 0 8 2 39 5 68 l6 52 -76 0 -76 0 -2 -297z m-413 -242 c7
-12 -31 -25 -46 -15 -8 4 -7 9 2 15 18 11 36 11 44 0z m195 -56 c7 -8 18 -15
24 -15 35 0 162 -153 172 -207 3 -18 10 -36 15 -39 5 -3 9 -60 9 -127 0 -136
-13 -189 -71 -278 -35 -55 -107 -119 -133 -119 -9 0 -19 -7 -22 -15 -9 -23
-120 -20 -187 6 -72 27 -123 78 -170 167 -67 128 -78 331 -24 449 16 36 129
153 167 172 47 25 201 29 220 6z"/>
<path d="M5680 2984 c-8 -3 -24 -9 -35 -14 -11 -5 -29 -10 -40 -12 -18 -3 -20
-12 -23 -120 -3 -141 -3 -141 -131 -142 l-86 -1 -8 -49 c-4 -27 -7 -50 -5 -51
2 -2 47 -5 100 -8 57 -2 104 -10 113 -17 13 -11 15 -63 15 -364 1 -293 3 -354
15 -370 8 -11 15 -27 15 -36 0 -21 67 -84 105 -99 32 -12 281 -19 292 -7 13
13 10 106 -3 106 -7 0 -16 -4 -19 -10 -3 -5 -27 -10 -52 -10 -64 0 -143 39
-176 87 l-26 38 -5 321 c-4 262 -2 325 9 340 12 17 28 19 142 19 l128 0 0 55
0 55 -103 -3 c-67 -2 -114 1 -133 9 -30 12 -64 61 -52 73 4 4 8 44 9 89 1 45
4 91 6 102 3 21 -21 29 -52 19z"/>
<path d="M1320 2711 c-40 -4 -81 -16 -105 -30 -42 -24 -95 -75 -95 -92 0 -15
-52 -10 -71 7 -15 14 -15 18 -2 45 24 48 13 59 -60 59 -80 0 -97 -14 -71 -59
13 -22 15 -33 7 -43 -8 -9 -12 -149 -13 -455 l-1 -441 68 -4 c37 -2 71 -2 76
0 4 2 7 125 7 274 0 217 3 284 16 332 18 68 42 123 64 148 8 9 26 31 40 48 13
18 41 44 61 57 48 32 136 55 160 43 41 -22 48 -14 46 53 -2 62 -2 62 -32 63
-16 1 -59 -2 -95 -5z m20 -61 c0 -5 -9 -10 -20 -10 -11 0 -20 5 -20 10 0 6 9
10 20 10 11 0 20 -4 20 -10z"/>
<path d="M4925 2710 c-91 -8 -126 -24 -195 -87 -36 -33 -49 -53 -53 -81 -3
-20 -11 -58 -18 -84 -11 -42 -10 -55 7 -103 15 -47 28 -63 74 -97 30 -23 57
-44 60 -47 14 -16 68 -48 90 -54 27 -7 152 -86 187 -119 28 -26 39 -94 23
-142 -11 -35 -43 -64 -107 -98 -42 -23 -160 -25 -189 -3 -10 8 -32 15 -48 15
-16 0 -37 7 -47 16 -27 25 -39 8 -39 -56 l0 -59 53 -15 c58 -17 225 -15 346 3
55 8 69 15 108 53 25 23 51 56 60 72 49 95 46 211 -8 295 -19 28 -36 51 -40
51 -3 0 -20 13 -37 28 -17 15 -57 36 -89 46 -59 19 -160 78 -200 118 -70 69
-48 166 52 232 25 16 41 18 131 13 72 -4 111 -11 129 -23 14 -9 27 -15 29 -13
11 13 13 109 3 117 -26 21 -169 32 -282 22z m-135 -309 c0 -11 -4 -22 -9 -25
-11 -7 -23 22 -15 35 9 16 24 10 24 -10z m50 -108 c0 -5 -9 -19 -20 -33 -18
-24 -19 -24 -26 -5 -4 11 -12 24 -18 28 -6 4 1 5 17 1 17 -4 27 -2 27 5 0 6 5
11 10 11 6 0 10 -3 10 -7z"/>
<path d="M1710 2693 c-25 -9 -49 -18 -55 -20 -5 -2 -23 -12 -40 -22 -28 -17
-30 -21 -27 -72 4 -63 9 -71 26 -46 7 9 18 17 24 17 6 0 17 6 24 13 24 23 102
40 203 44 94 4 103 2 154 -24 63 -32 104 -93 126 -190 12 -50 12 -61 -1 -80
-13 -21 -21 -22 -196 -25 -164 -3 -189 -6 -238 -27 -30 -12 -70 -27 -89 -33
-45 -13 -113 -78 -130 -125 -8 -21 -16 -76 -18 -123 -11 -209 88 -299 330
-300 151 0 214 19 273 82 49 53 63 57 88 29 13 -15 15 -24 6 -46 -6 -16 -7
-32 -3 -36 12 -11 112 -14 121 -3 4 5 5 181 2 391 -4 287 -8 385 -17 395 -7 6
-13 20 -13 30 0 53 -89 158 -134 158 -8 0 -27 7 -42 15 -41 21 -311 20 -374
-2z m409 -502 c51 -28 52 -131 3 -235 -34 -73 -102 -146 -135 -146 -13 0 -32
-7 -43 -15 -12 -9 -43 -14 -89 -14 -86 -1 -152 31 -203 98 -31 41 -33 49 -30
107 4 59 6 64 57 113 29 28 64 54 79 57 15 3 44 13 65 21 20 9 54 19 75 23 50
9 197 3 221 -9z"/>
<path d="M2854 2695 c-10 -8 -25 -15 -33 -15 -13 0 -32 -16 -101 -82 -21 -21
-43 -38 -49 -38 -19 0 -33 42 -28 81 3 23 0 42 -7 48 -12 10 -136 3 -136 -8
-3 -259 1 -974 4 -980 6 -9 125 -5 134 4 3 2 4 118 3 257 -1 139 3 273 8 298
17 78 33 134 42 150 5 8 13 24 18 35 5 11 28 38 51 60 23 22 46 50 51 63 4 12
15 22 24 22 8 0 15 3 15 8 0 4 46 9 103 10 84 3 106 1 116 -12 8 -9 19 -16 26
-16 13 0 59 -48 90 -95 43 -65 47 -96 54 -449 l6 -340 65 3 c36 1 67 5 70 9 4
4 3 171 -1 372 -7 378 -9 398 -54 492 -18 36 -74 84 -142 121 -44 23 -298 25
-329 2z"/>
<path d="M6370 2695 c-14 -8 -33 -14 -43 -15 -9 0 -35 -11 -57 -25 l-39 -25 6
-52 c3 -29 7 -55 9 -57 2 -2 12 3 22 12 10 10 23 17 29 17 6 0 16 7 23 15 7 8
20 15 29 15 9 0 30 8 46 17 43 24 198 20 257 -6 48 -21 98 -65 98 -85 0 -8 7
-19 15 -26 31 -26 48 -147 25 -175 -7 -8 -65 -13 -176 -14 -141 -1 -174 -5
-222 -22 -31 -12 -79 -28 -107 -35 -57 -16 -134 -85 -135 -120 0 -12 -7 -27
-15 -34 -12 -10 -15 -36 -15 -115 0 -79 3 -105 15 -115 8 -7 15 -19 15 -28 0
-8 16 -34 35 -58 26 -32 47 -46 78 -54 23 -6 58 -15 77 -20 74 -21 172 -20
255 2 86 23 130 47 140 77 7 23 58 46 81 37 14 -5 15 -15 10 -55 l-6 -48 57
-6 c32 -3 59 -4 61 -2 5 5 2 623 -4 719 -2 44 -9 85 -14 90 -6 6 -10 24 -10
40 0 24 -12 41 -54 81 -77 71 -103 78 -296 82 -131 2 -170 0 -190 -12z m75
-45 c4 -6 -5 -10 -20 -10 -15 0 -24 4 -20 10 3 6 12 10 20 10 8 0 17 -4 20
-10z m331 -465 c31 -20 38 -93 18 -169 -10 -34 -23 -68 -31 -77 -7 -8 -13 -22
-13 -30 0 -26 -92 -99 -123 -99 -8 0 -20 -7 -27 -15 -17 -21 -148 -21 -176 0
-10 8 -30 15 -44 15 -52 1 -119 136 -102 203 3 12 12 33 21 47 36 59 66 79
171 113 97 33 111 35 195 30 50 -3 99 -11 111 -18z"/>
</g>
</svg>
